<svg id="Capa_1" data-name="Capa 1" xmlns="http://www.w3.org/2000/svg" viewBox="0 0 91.08 104.54"><defs><style>.cls-1{fill:none;}</style></defs><title>list</title><rect class="cls-1" x="11.58" y="37.26" width="23.31" height="21.75"/><path class="cls-1" d="M2,7.67v94.87H84.52V7.67H2ZM38,92.6H8.62V88.35H38V92.6ZM8.46,69.35V65.1H37.79v4.25H8.46ZM38,84.85H8.62V80.6H38v4.25ZM49.37,18.6H78.71v4.25H49.37V18.6Zm0,7.75H78.71V30.6H49.37V26.35Zm0,7.75H78.71v4.25H49.37V34.1Zm0,7.75H78.71V46.1H49.37V41.85Zm0,7.75H78.71v4.25H49.37V49.6Zm0,7.75H78.71V61.6H49.37V57.35Zm0,7.75H78.71v4.25H49.37V65.1Zm0,7.75H78.71V77.1H49.37V72.85Zm0,7.75H78.71v4.25H49.37V80.6Zm0,7.75H78.71V92.6H49.37V88.35ZM38,77.1H8.62V72.85H38V77.1ZM37.89,62H8.58V34.26H37.89V62ZM37.79,30.6H8.46V26.35H37.79V30.6Zm-29.33-12H37.79v4.25H8.45V18.64Z" transform="translate(0 0)"/><polygon class="cls-1" points="6.56 5.67 86.49 5.67 86.49 96.87 89.11 96.87 89.11 2 6.56 2 6.56 5.67"/><path d="M8.58,62H37.89V34.26H8.58V62Zm3-24.75H34.89V59H11.58V37.26Z" transform="translate(0 0)"/><rect x="49.37" y="18.6" width="29.33" height="4.25"/><rect x="49.37" y="26.35" width="29.33" height="4.25"/><rect x="8.45" y="18.64" width="29.33" height="4.25"/><rect x="8.46" y="26.35" width="29.33" height="4.25"/><rect x="49.37" y="34.1" width="29.33" height="4.25"/><rect x="49.37" y="41.85" width="29.33" height="4.25"/><rect x="49.37" y="49.6" width="29.33" height="4.25"/><rect x="49.37" y="57.35" width="29.33" height="4.25"/><rect x="49.37" y="65.1" width="29.33" height="4.25"/><rect x="8.46" y="65.1" width="29.33" height="4.25"/><rect x="49.37" y="72.85" width="29.33" height="4.25"/><rect x="49.37" y="80.6" width="29.33" height="4.25"/><rect x="49.37" y="88.35" width="29.33" height="4.25"/><rect x="8.62" y="72.85" width="29.33" height="4.25"/><rect x="8.62" y="80.6" width="29.33" height="4.25"/><rect x="8.62" y="88.35" width="29.33" height="4.25"/><path d="M4.59,0V5.67H0v98.87H86.49V98.87h4.59V0H4.59ZM84.52,98.87v3.67H2V7.67H84.52V98.87Zm4.59-2H86.49V5.67H6.56V2H89.11V96.87Z" transform="translate(0 0)"/></svg>